# xmcd CD database file
#
# Track frame offsets:
#	150
#	19723
#	35578
#	55178
#	70146
#	84428
#	102033
#	116960
#	130680
#	151913
#	172192
#	186205
#	199855
#	219532
#	237768
#	259021
#	270931
#	285756
#
# Disc length: 4122 seconds
#
# Revision: 0
# Processed by: cddbd v1.5.2PL0 Copyright (c) Steve Scherf et al.
# Submitted via: CDex 1.70beta2
#
DISCID=f3101812
DTITLE=Duke Ellington - "...and his mother called him Bill"
DYEAR=1900
DGENRE=Jazz
TTITLE0=Snibor
TTITLE1=Boo-Dah
TTITLE2=Blood Count
TTITLE3=U.M.M.G.
TTITLE4=Charpoy
TTITLE5=After All
TTITLE6=Smada
TTITLE7=The Intimacy Of The Blues
TTITLE8=Rain Check
TTITLE9=Day-Dream
TTITLE10=Rock Shippin' At Tje Blue Note
TTITLE11=All Day Long
TTITLE12=My Littel Brown Book
TTITLE13=Lotus Blossom
TTITLE14=Take The "A" Train
TTITLE15=I Got It Bad
TTITLE16=Perdido
TTITLE17=Mood Indigo
EXTD=
EXTT0=
EXTT1=
EXTT2=
EXTT3=
EXTT4=
EXTT5=
EXTT6=
EXTT7=
EXTT8=
EXTT9=
EXTT10=
EXTT11=
EXTT12=
EXTT13=
EXTT14=
EXTT15=
EXTT16=
EXTT17=
PLAYORDER=
